<?xml version="1.0" encoding="utf-8"?>
<!-- Generator: Adobe Illustrator 15.1.0, SVG Export Plug-In . SVG Version: 6.00 Build 0)  -->
<!DOCTYPE svg PUBLIC "-//W3C//DTD SVG 1.1//EN" "http://www.w3.org/Graphics/SVG/1.1/DTD/svg11.dtd">
<svg version="1.1" id="Layer_1" xmlns="http://www.w3.org/2000/svg" xmlns:xlink="http://www.w3.org/1999/xlink" x="0px" y="0px"
	 width="90px" height="90px" viewBox="0 0 90 90" enable-background="new 0 0 90 90" xml:space="preserve">
<path fill="#FFFFFF" d="M70.394,71.224c-0.32,0.281-0.647,0.576-0.981,0.865c-6.821,5.894-15.427,9.14-24.211,9.14
	c-20.279,0-36.767-16.437-36.767-36.644c0-20.202,16.488-36.645,36.767-36.645c20.281,0,36.768,16.443,36.768,36.635
	c0,0.11-0.129,11.272-7.802,13.931c-5.972,1.453-9.012-2.051-13.447-7.859c-0.556-0.736-1.139-1.487-1.737-2.231h0.491h0.093
	c5.496,0,9.396-1.214,11.909-3.73c1.952-1.943,2.905-4.459,2.905-7.685c0-1.861-0.757-11.141-15.532-11.141H19.824v6.959h7.507
	v25.136H20.1v6.946h21.555v-6.946h-7.373v-9.54h13.442c2.375,0,4.404,2.448,7.465,6.458c4.222,5.508,9.995,13.075,20.815,10.343
	l0.231-0.076c12.49-4.125,12.681-19.871,12.681-20.555C88.916,20.547,69.305,1,45.202,1C21.091,1,1.48,20.547,1.48,44.586
	c0,24.04,19.611,43.594,43.722,43.594c10.451,0,20.659-3.844,28.752-10.826c2.563-2.218,4.67-4.317,6.121-6.129H70.394z
	 M34.282,41.472V32.82h24.567c5.367,0,8.58,1.562,8.58,4.182c0,1.338-0.258,2.156-0.856,2.761c-1.111,1.115-3.602,1.741-7.075,1.708
	H34.282z"/>
</svg>
